P2
# map.pgm header
8 8  #  W x H image
255 # white: 255, gray: 127, black: 0

255 0 0 0 255 255 255 255
255 255 255 0 255 255 255 255
255 255 255 0 255 0 0 255
255 255 255 0 255 0 255 255
255 255 255 0 255 0 255 255
255 255 255 0 255 0 255 0
255 255 255 255 255 0 255 255
255 0 0 0 0 0 0 127
